HIERARCHY
ROOT Hips
{
  OFFSET 12.549 23.098 -270.032
  CHANNELS 6 Xposition Yposition Zposition Zrotation Xrotation Yrotation
  JOINT LeftUpLeg
  {
    OFFSET 8.049 -7.325 1.894
    CHANNELS 6 Xposition Yposition Zposition Zrotation Xrotation Yrotation
    JOINT LeftLeg
    {
      OFFSET 0.000 -49.691 0.000
      CHANNELS 6 Xposition Yposition Zposition Zrotation Xrotation Yrotation
      JOINT LeftFoot
      {
        OFFSET -0.000 -38.502 -0.000
        CHANNELS 6 Xposition Yposition Zposition Zrotation Xrotation Yrotation
        End Site
        {
          OFFSET 0.000 -9.561 5.520
        }
      }
    }
  }
  JOINT RightUpLeg
  {
    OFFSET -7.426 -7.763 1.800
    CHANNELS 6 Xposition Yposition Zposition Zrotation Xrotation Yrotation
    JOINT RightLeg
    {
      OFFSET 0.000 -47.475 0.000
      CHANNELS 6 Xposition Yposition Zposition Zrotation Xrotation Yrotation
      JOINT RightFoot
      {
        OFFSET -0.000 -42.529 -0.000
        CHANNELS 6 Xposition Yposition Zposition Zrotation Xrotation Yrotation
        End Site
        {
          OFFSET 0.000 -9.098 5.253
        }
      }
    }
  }
  JOINT Spine
  {
    OFFSET 0.000 6.123 -6.123
    CHANNELS 6 Xposition Yposition Zposition Zrotation Xrotation Yrotation
    JOINT LeftShoulder
    {
      OFFSET -0.000 34.616 0.000
      CHANNELS 6 Xposition Yposition Zposition Zrotation Xrotation Yrotation
      JOINT LeftArm
      {
        OFFSET 20.066 0.000 -0.000
        CHANNELS 6 Xposition Yposition Zposition Zrotation Xrotation Yrotation
        JOINT LeftForeArm
        {
          OFFSET 27.815 0.000 0.000
          CHANNELS 6 Xposition Yposition Zposition Zrotation Xrotation Yrotation
          JOINT LeftHand
          {
            OFFSET 26.373 0.000 -0.000
            CHANNELS 6 Xposition Yposition Zposition Zrotation Xrotation Yrotation
            JOINT LeftHandThumb1
            {
            OFFSET 4.970 -0.620 3.390
            CHANNELS 6 Xposition Yposition Zposition Zrotation Xrotation Yrotation
              JOINT LeftHandThumb2
              {
              OFFSET 2.150 -0.000 0.000
              CHANNELS 6 Xposition Yposition Zposition Zrotation Xrotation Yrotation
                JOINT LeftHandThumb3
                {
                OFFSET 2.200 -0.000 0.000
                CHANNELS 6 Xposition Yposition Zposition Zrotation Xrotation Yrotation
                  JOINT LeftHandThumb4
                  {
                  OFFSET 1.700 -0.000 0.000
                  CHANNELS 6 Xposition Yposition Zposition Zrotation Xrotation Yrotation
                  }
                }
              }
            }
            JOINT LeftHandIndex1
            {
            OFFSET 8.730 0.680 2.070
            CHANNELS 6 Xposition Yposition Zposition Zrotation Xrotation Yrotation
              JOINT LeftHandIndex2
              {
              OFFSET 2.670 -0.000 0.000
              CHANNELS 6 Xposition Yposition Zposition Zrotation Xrotation Yrotation
                JOINT LeftHandIndex3
                {
                OFFSET 2.130 -0.000 0.000
                CHANNELS 6 Xposition Yposition Zposition Zrotation Xrotation Yrotation
                  JOINT LeftHandIndex4
                  {
                  OFFSET 1.800 -0.000 0.000
                  CHANNELS 6 Xposition Yposition Zposition Zrotation Xrotation Yrotation
                  }
                }
              }
            }
            JOINT LeftHandMiddle1
            {
            OFFSET 9.220 0.670 0.550
            CHANNELS 6 Xposition Yposition Zposition Zrotation Xrotation Yrotation
              JOINT LeftHandMiddle2
              {
              OFFSET 2.660 -0.000 0.000
              CHANNELS 6 Xposition Yposition Zposition Zrotation Xrotation Yrotation
                JOINT LeftHandMiddle3
                {
                OFFSET 2.280 -0.000 0.000
                CHANNELS 6 Xposition Yposition Zposition Zrotation Xrotation Yrotation
                  JOINT LeftHandMiddle4
                  {
                  OFFSET 1.500 -0.000 0.000
                  CHANNELS 6 Xposition Yposition Zposition Zrotation Xrotation Yrotation
                  }
                }
              }
            }
            JOINT LeftHandRing1
            {
            OFFSET 9.250 0.670 -1.130
            CHANNELS 6 Xposition Yposition Zposition Zrotation Xrotation Yrotation
              JOINT LeftHandRing2
              {
              OFFSET 2.470 -0.000 0.000
              CHANNELS 6 Xposition Yposition Zposition Zrotation Xrotation Yrotation
                JOINT LeftHandRing3
                {
                OFFSET 2.210 -0.000 0.000
                CHANNELS 6 Xposition Yposition Zposition Zrotation Xrotation Yrotation
                  JOINT LeftHandRing4
                  {
                  OFFSET 1.800 -0.000 0.000
                  CHANNELS 6 Xposition Yposition Zposition Zrotation Xrotation Yrotation
                  }
                }
              }
            }
            JOINT LeftHandPinky1
            {
            OFFSET 9.350 0.660 -2.720
            CHANNELS 6 Xposition Yposition Zposition Zrotation Xrotation Yrotation
              JOINT LeftHandPinky2
              {
              OFFSET 1.630 -0.000 0.000
              CHANNELS 6 Xposition Yposition Zposition Zrotation Xrotation Yrotation
                JOINT LeftHandPinky3
                {
                OFFSET 1.710 -0.000 0.000
                CHANNELS 6 Xposition Yposition Zposition Zrotation Xrotation Yrotation
                  JOINT LeftHandPinky4
                  {
                  OFFSET 1.800 -0.000 0.000
                  CHANNELS 6 Xposition Yposition Zposition Zrotation Xrotation Yrotation
                  }
                }
              }
            }
          }
        }
      }
    }
    JOINT RightShoulder
    {
      OFFSET -0.000 34.616 0.000
      CHANNELS 6 Xposition Yposition Zposition Zrotation Xrotation Yrotation
      JOINT RightArm
      {
        OFFSET -19.746 0.000 -0.000
        CHANNELS 6 Xposition Yposition Zposition Zrotation Xrotation Yrotation
        JOINT RightForeArm
        {
          OFFSET -30.437 0.000 0.000
          CHANNELS 6 Xposition Yposition Zposition Zrotation Xrotation Yrotation
          JOINT RightHand
          {
            OFFSET -27.060 0.000 -0.000
            CHANNELS 6 Xposition Yposition Zposition Zrotation Xrotation Yrotation
            JOINT RightHandThumb1
            {
            OFFSET -4.970 -0.620 3.390
            CHANNELS 6 Xposition Yposition Zposition Zrotation Xrotation Yrotation
              JOINT RightHandThumb2
              {
              OFFSET -2.150 0.000 0.000
              CHANNELS 6 Xposition Yposition Zposition Zrotation Xrotation Yrotation
                JOINT RightHandThumb3
                {
                OFFSET -2.200 0.000 0.000
                CHANNELS 6 Xposition Yposition Zposition Zrotation Xrotation Yrotation
                  JOINT RightHandThumb4
                  {
                  OFFSET -1.700 0.000 0.000
                  CHANNELS 6 Xposition Yposition Zposition Zrotation Xrotation Yrotation
                  }
                }
              }
            }
            JOINT RightHandIndex1
            {
            OFFSET -8.730 0.680 2.070
            CHANNELS 6 Xposition Yposition Zposition Zrotation Xrotation Yrotation
              JOINT RightHandIndex2
              {
              OFFSET -2.670 0.000 0.000
              CHANNELS 6 Xposition Yposition Zposition Zrotation Xrotation Yrotation
                JOINT RightHandIndex3
                {
                OFFSET -2.130 0.000 0.000
                CHANNELS 6 Xposition Yposition Zposition Zrotation Xrotation Yrotation
                  JOINT RightHandIndex4
                  {
                  OFFSET -1.800 0.000 0.000
                  CHANNELS 6 Xposition Yposition Zposition Zrotation Xrotation Yrotation
                  }
                }
              }
            }
            JOINT RightHandMiddle1
            {
            OFFSET -9.220 0.670 0.550
            CHANNELS 6 Xposition Yposition Zposition Zrotation Xrotation Yrotation
              JOINT RightHandMiddle2
              {
              OFFSET -2.660 0.000 0.000
              CHANNELS 6 Xposition Yposition Zposition Zrotation Xrotation Yrotation
                JOINT RightHandMiddle3
                {
                OFFSET -2.280 0.000 0.000
                CHANNELS 6 Xposition Yposition Zposition Zrotation Xrotation Yrotation
                  JOINT RightHandMiddle4
                  {
                  OFFSET -1.500 0.000 0.000
                  CHANNELS 6 Xposition Yposition Zposition Zrotation Xrotation Yrotation
                  }
                }
              }
            }
            JOINT RightHandRing1
            {
            OFFSET -9.250 0.670 -1.130
            CHANNELS 6 Xposition Yposition Zposition Zrotation Xrotation Yrotation
              JOINT RightHandRing2
              {
              OFFSET -2.470 0.000 0.000
              CHANNELS 6 Xposition Yposition Zposition Zrotation Xrotation Yrotation
                JOINT RightHandRing3
                {
                OFFSET -2.210 0.000 0.000
                CHANNELS 6 Xposition Yposition Zposition Zrotation Xrotation Yrotation
                  JOINT RightHandRing4
                  {
                  OFFSET -1.800 0.000 0.000
                  CHANNELS 6 Xposition Yposition Zposition Zrotation Xrotation Yrotation
                  }
                }
              }
            }
            JOINT RightHandPinky1
            {
            OFFSET -9.350 0.660 -2.720
            CHANNELS 6 Xposition Yposition Zposition Zrotation Xrotation Yrotation
              JOINT RightHandPinky2
              {
              OFFSET -1.630 0.000 0.000
              CHANNELS 6 Xposition Yposition Zposition Zrotation Xrotation Yrotation
                JOINT RightHandPinky3
                {
                OFFSET -1.710 0.000 0.000
                CHANNELS 6 Xposition Yposition Zposition Zrotation Xrotation Yrotation
                  JOINT RightHandPinky4
                  {
                  OFFSET -1.800 0.000 0.000
                  CHANNELS 6 Xposition Yposition Zposition Zrotation Xrotation Yrotation
                  }
                }
              }
            }
          }
        }
      }
    }
    JOINT Neck
    {
      OFFSET -0.000 34.616 0.000
      CHANNELS 6 Xposition Yposition Zposition Zrotation Xrotation Yrotation
      JOINT Head
      {
        OFFSET -0.000 21.093 -0.000
        CHANNELS 6 Xposition Yposition Zposition Zrotation Xrotation Yrotation
        End Site
        {
          OFFSET -0.000 0.084 -0.000
        }
      }
    }
  }
}
MOTION
Frames:	6
Frame Time:	0.0333333
12.1719 23.569 -272.045 0.0842773 1.2829 -4.48841 7.90784 -7.63443 1.9109 12.4279 -1.95032 -0.756568 -5.7742e-06 -50.3035 -2.38419e-05 -3.48372 5.17628 0.314688 -3.07336e-06 -37.9734 0 3.39217 -14.7349 2.83309 -7.58198 -7.56297 1.59531 -5.9085 3.62703 -0.8123 1.49012e-06 -48.7049 7.15256e-05 5.57521 -1.37436 0.134142 0 -39.7996 0 -7.20889 -4.35721 -4.73734 -5.21541e-06 6.3524 -6.35231 1.06115 -3.81041 -0.605616 -1.49012e-06 34.616 -7.15256e-05 -29.4187 1.25398e-05 -8.08786 20.3454 -5.96046e-06 7.15256e-05 -48.1221 20.1074 2.25029 28.4408 -1.19209e-05 -9.53674e-05 4.74274e-06 5.12264e-06 -21.2704 25.2558 1.19209e-05 -7.15256e-05 -3.59399 -0.00694873 1.5215 0.0062 0.0497 0.0339 0 0 0 0 0.0215 0 0 0 0 0 0.022 0 0 0 0 0 0.017 0 0 0 0 -0.0068 0.0873 0.0207 0 0 0 0 0.0267 0 0 0 0 0 0.0213 0 0 0 0 0 0.018 0 0 0 0 -0.0067 0.0922 0.0055 0 0 0 0 0.0266 0 0 0 0 0 0.0228 0 0 0 0 0 0.015 0 0 0 0 -0.0067 0.0925 -0.0113 0 0 0 0 0.0247 0 0 0 0 0 0.0221 0 0 0 0 0 0.018 0 0 0 0 -0.0066 0.0935 -0.0272 0 0 0 0 0.0163 0 0 0 0 0 0.0171 0 0 0 0 0 0.018 0 0 0 0 -1.49012e-06 34.616 -7.15256e-05 27.2111 -2.56132e-06 8.47257 -19.4278 -2.38419e-05 2.38419e-05 47.1197 -6.54631 -4.60394 -29.8762 1.19209e-05 -2.38419e-05 5.67245 1.73197 16.9242 -26.592 2.98023e-06 -4.76837e-05 8.3653 -0.058795 0.258395 -0.0062 0.0497 0.0339 0 0 0 0 0.0215 0 0 0 0 0 0.022 0 0 0 0 0 0.017 0 0 0 0 0.0068 0.0873 0.0207 0 0 0 0 0.0267 0 0 0 0 0 0.0213 0 0 0 0 0 0.018 0 0 0 0 0.0067 0.0922 0.0055 0 0 0 0 0.0266 0 0 0 0 0 0.0228 0 0 0 0 0 0.015 0 0 0 0 0.0067 0.0925 -0.0113 0 0 0 0 0.0247 0 0 0 0 0 0.0221 0 0 0 0 0 0.018 0 0 0 0 0.0066 0.0935 -0.0272 0 0 0 0 0.0163 0 0 0 0 0 0.0171 0 0 0 0 0 0.018 0 0 0 0 -1.49012e-06 34.616 -7.15256e-05 -3.18896 11.7559 0.650375 -1.49012e-06 22.5154 7.15256e-05 9.97848e-06 -7.68396e-06 -1.70755e-06 
12.1719 23.569 -272.045 0.0842773 1.2829 -4.48841 7.90784 -7.63443 1.9109 12.4279 -1.95032 -0.756568 -5.7742e-06 -50.3035 -2.38419e-05 -3.48372 5.17628 0.314688 -3.07336e-06 -37.9734 0 3.39217 -14.7349 2.83309 -7.58198 -7.56297 1.59531 -5.9085 3.62703 -0.8123 1.49012e-06 -48.7049 7.15256e-05 5.57521 -1.37436 0.134142 0 -39.7996 0 -7.20889 -4.35721 -4.73734 -5.21541e-06 6.3524 -6.35231 1.06115 -3.81041 -0.605616 -1.49012e-06 34.616 -7.15256e-05 -29.4187 1.25398e-05 -8.08786 20.3454 -5.96046e-06 7.15256e-05 -48.1221 20.1074 2.25029 28.4408 -1.19209e-05 -9.53674e-05 4.74274e-06 5.12264e-06 -21.2704 25.2558 1.19209e-05 -7.15256e-05 -3.59399 -0.00694873 1.5215 0.0062 0.0497 0.0339 0 0 0 0 0.0215 0 0 0 0 0 0.022 0 0 0 0 0 0.017 0 0 0 0 -0.0068 0.0873 0.0207 0 0 0 0 0.0267 0 0 0 0 0 0.0213 0 0 0 0 0 0.018 0 0 0 0 -0.0067 0.0922 0.0055 0 0 0 0 0.0266 0 0 0 0 0 0.0228 0 0 0 0 0 0.015 0 0 0 0 -0.0067 0.0925 -0.0113 0 0 0 0 0.0247 0 0 0 0 0 0.0221 0 0 0 0 0 0.018 0 0 0 0 -0.0066 0.0935 -0.0272 0 0 0 0 0.0163 0 0 0 0 0 0.0171 0 0 0 0 0 0.018 0 0 0 0 -1.49012e-06 34.616 -7.15256e-05 27.2111 -2.56132e-06 8.47257 -19.4278 -2.38419e-05 2.38419e-05 47.1197 -6.54631 -4.60394 -29.8762 1.19209e-05 -2.38419e-05 5.67245 1.73197 16.9242 -26.592 2.98023e-06 -4.76837e-05 8.3653 -0.058795 0.258395 -0.0062 0.0497 0.0339 0 0 0 0 0.0215 0 0 0 0 0 0.022 0 0 0 0 0 0.017 0 0 0 0 0.0068 0.0873 0.0207 0 0 0 0 0.0267 0 0 0 0 0 0.0213 0 0 0 0 0 0.018 0 0 0 0 0.0067 0.0922 0.0055 0 0 0 0 0.0266 0 0 0 0 0 0.0228 0 0 0 0 0 0.015 0 0 0 0 0.0067 0.0925 -0.0113 0 0 0 0 0.0247 0 0 0 0 0 0.0221 0 0 0 0 0 0.018 0 0 0 0 0.0066 0.0935 -0.0272 0 0 0 0 0.0163 0 0 0 0 0 0.0171 0 0 0 0 0 0.018 0 0 0 0 -1.49012e-06 34.616 -7.15256e-05 -3.18896 11.7559 0.650375 -1.49012e-06 22.5154 7.15256e-05 9.97848e-06 -7.68396e-06 -1.70755e-06 
13.6417 23.515 -271.814 -0.148656 1.35381 -5.2532 7.97185 -7.63303 1.9104 12.3656 -0.831241 -1.0081 5.21541e-06 -50.105 7.15256e-05 -3.83768 3.33842 0.223817 1.86265e-06 -37.8944 -4.76837e-05 3.09509 -14.0417 2.56042 -7.61774 -7.62114 1.59385 -6.20018 3.22856 -0.820164 8.9407e-06 -48.5849 7.15256e-05 4.77151 -0.698682 0.0583201 -5.96046e-06 -39.8914 0 -6.60578 -4.80545 -4.41998 -2.98023e-06 6.34334 -6.34336 1.1049 -3.67565 -0.501001 7.45058e-06 34.616 0 -29.3223 1.286e-05 -7.62125 20.4323 -1.19209e-05 4.76837e-05 -48.0089 20.7949 1.99514 28.3647 3.57628e-05 7.15256e-05 3.78838e-06 -1.36604e-05 -21.5325 25.1973 0 -7.15256e-05 -4.00341 0.00216065 0.912555 0.0062 0.0497 0.0339 0 0 0 0 0.0215 0 0 0 0 0 0.022 0 0 0 0 0 0.017 0 0 0 0 -0.0068 0.0873 0.0207 0 0 0 0 0.0267 0 0 0 0 0 0.0213 0 0 0 0 0 0.018 0 0 0 0 -0.0067 0.0922 0.0055 0 0 0 0 0.0266 0 0 0 0 0 0.0228 0 0 0 0 0 0.015 0 0 0 0 -0.0067 0.0925 -0.0113 0 0 0 0 0.0247 0 0 0 0 0 0.0221 0 0 0 0 0 0.018 0 0 0 0 -0.0066 0.0935 -0.0272 0 0 0 0 0.0163 0 0 0 0 0 0.0171 0 0 0 0 0 0.018 0 0 0 0 7.45058e-06 34.616 0 27.1676 -2.98821e-06 7.95888 -19.5707 -1.19209e-05 -4.76837e-05 47.3099 -6.31454 -3.74948 -29.7728 5.96046e-06 4.76837e-05 5.39369 1.61696 16.6394 -27.3748 2.98023e-06 -2.38419e-05 8.18079 -0.0607483 -0.149949 -0.0062 0.0497 0.0339 0 0 0 0 0.0215 0 0 0 0 0 0.022 0 0 0 0 0 0.017 0 0 0 0 0.0068 0.0873 0.0207 0 0 0 0 0.0267 0 0 0 0 0 0.0213 0 0 0 0 0 0.018 0 0 0 0 0.0067 0.0922 0.0055 0 0 0 0 0.0266 0 0 0 0 0 0.0228 0 0 0 0 0 0.015 0 0 0 0 0.0067 0.0925 -0.0113 0 0 0 0 0.0247 0 0 0 0 0 0.0221 0 0 0 0 0 0.018 0 0 0 0 0.0066 0.0935 -0.0272 0 0 0 0 0.0163 0 0 0 0 0 0.0171 0 0 0 0 0 0.018 0 0 0 0 7.45058e-06 34.616 0 -2.30283 11.076 0.44263 1.49012e-06 22.4723 7.15256e-05 9.71168e-06 -9.39151e-06 -4.26887e-07 
15.3133 23.5041 -271.611 -0.217466 1.36305 -5.69941 7.98907 -7.65542 1.91898 11.9835 0.265062 -1.33309 1.71363e-05 -49.8132 4.76837e-05 -4.32682 1.40868 0.106573 2.6077e-06 -37.9412 -2.38419e-05 3.04583 -13.0963 2.47025 -7.62007 -7.65599 1.57862 -6.8407 2.88735 -0.910226 2.98023e-06 -48.6211 2.38419e-05 4.11848 -0.101135 0.00728099 -2.98023e-06 -39.9487 0 -5.94704 -5.21564 -4.05281 -1.49012e-06 6.33362 -6.33361 1.22498 -3.56103 -0.54992 -2.98023e-06 34.616 -7.15256e-05 -29.4354 1.18461e-05 -7.30051 20.5717 2.38419e-05 4.76837e-05 -48.2214 18.7135 1.72209 28.2927 -5.96046e-06 0 6.7759e-06 1.02453e-05 -21.4437 25.1658 0 -4.76837e-05 -4.85985 0.00704837 0.429133 0.0062 0.0497 0.0339 0 0 0 0 0.0215 0 0 0 0 0 0.022 0 0 0 0 0 0.017 0 0 0 0 -0.0068 0.0873 0.0207 0 0 0 0 0.0267 0 0 0 0 0 0.0213 0 0 0 0 0 0.018 0 0 0 0 -0.0067 0.0922 0.0055 0 0 0 0 0.0266 0 0 0 0 0 0.0228 0 0 0 0 0 0.015 0 0 0 0 -0.0067 0.0925 -0.0113 0 0 0 0 0.0247 0 0 0 0 0 0.0221 0 0 0 0 0 0.018 0 0 0 0 -0.0066 0.0935 -0.0272 0 0 0 0 0.0163 0 0 0 0 0 0.0171 0 0 0 0 0 0.018 0 0 0 0 -2.98023e-06 34.616 -7.15256e-05 27.1625 -1.70755e-06 7.68217 -19.5553 -5.96046e-06 2.38419e-05 47.139 -6.18295 -3.27842 -29.7976 0 4.76837e-05 5.03133 1.49751 16.5329 -27.4509 2.98023e-06 -7.15256e-05 8.12316 -0.0559499 -0.383305 -0.0062 0.0497 0.0339 0 0 0 0 0.0215 0 0 0 0 0 0.022 0 0 0 0 0 0.017 0 0 0 0 0.0068 0.0873 0.0207 0 0 0 0 0.0267 0 0 0 0 0 0.0213 0 0 0 0 0 0.018 0 0 0 0 0.0067 0.0922 0.0055 0 0 0 0 0.0266 0 0 0 0 0 0.0228 0 0 0 0 0 0.015 0 0 0 0 0.0067 0.0925 -0.0113 0 0 0 0 0.0247 0 0 0 0 0 0.0221 0 0 0 0 0 0.018 0 0 0 0 0.0066 0.0935 -0.0272 0 0 0 0 0.0163 0 0 0 0 0 0.0171 0 0 0 0 0 0.018 0 0 0 0 -2.98023e-06 34.616 -7.15256e-05 -2.7372 11.034 0.524262 -5.96046e-06 22.3754 2.38419e-05 1.04587e-05 -8.53774e-06 -8.53774e-07 
17.0073 23.4772 -271.421 -0.289448 1.42629 -6.12229 7.98714 -7.66848 1.91951 11.6499 1.26236 -1.59201 4.47035e-06 -49.5203 4.76837e-05 -5.00144 -0.33884 -0.0296555 -2.30968e-05 -37.9076 -9.53674e-05 3.14259 -12.0173 2.47944 -7.60431 -7.66863 1.56438 -7.52327 2.4031 -0.997833 -2.98023e-06 -48.7187 4.76837e-05 4.21993 0.715616 -0.052801 2.98023e-06 -39.842 -2.38419e-05 -5.71157 -5.62189 -3.92747 0 6.32551 -6.32553 1.30672 -3.47027 -0.579977 2.98023e-06 34.616 0 -29.6494 1.15259e-05 -6.99523 20.5395 5.96046e-06 2.38419e-05 -47.6181 20.4735 1.80169 28.3452 0 -2.38419e-05 2.55758e-06 1.70755e-06 -22.5426 25.1376 1.19209e-05 2.38419e-05 -5.43414 0.00921276 0.19454 0.0062 0.0497 0.0339 0 0 0 0 0.0215 0 0 0 0 0 0.022 0 0 0 0 0 0.017 0 0 0 0 -0.0068 0.0873 0.0207 0 0 0 0 0.0267 0 0 0 0 0 0.0213 0 0 0 0 0 0.018 0 0 0 0 -0.0067 0.0922 0.0055 0 0 0 0 0.0266 0 0 0 0 0 0.0228 0 0 0 0 0 0.015 0 0 0 0 -0.0067 0.0925 -0.0113 0 0 0 0 0.0247 0 0 0 0 0 0.0221 0 0 0 0 0 0.018 0 0 0 0 -0.0066 0.0935 -0.0272 0 0 0 0 0.0163 0 0 0 0 0 0.0171 0 0 0 0 0 0.018 0 0 0 0 2.98023e-06 34.616 0 27.1617 -1.70755e-06 7.36399 -19.5162 5.96046e-06 0 47.2749 -6.0394 -2.74327 -29.8792 5.96046e-06 9.53674e-05 4.34073 1.29367 16.5643 -27.8987 -2.98023e-06 0 8.61446 -0.0495558 -0.222697 -0.0062 0.0497 0.0339 0 0 0 0 0.0215 0 0 0 0 0 0.022 0 0 0 0 0 0.017 0 0 0 0 0.0068 0.0873 0.0207 0 0 0 0 0.0267 0 0 0 0 0 0.0213 0 0 0 0 0 0.018 0 0 0 0 0.0067 0.0922 0.0055 0 0 0 0 0.0266 0 0 0 0 0 0.0228 0 0 0 0 0 0.015 0 0 0 0 0.0067 0.0925 -0.0113 0 0 0 0 0.0247 0 0 0 0 0 0.0221 0 0 0 0 0 0.018 0 0 0 0 0.0066 0.0935 -0.0272 0 0 0 0 0.0163 0 0 0 0 0 0.0171 0 0 0 0 0 0.018 0 0 0 0 2.98023e-06 34.616 0 -2.74962 10.7823 0.514774 -7.45058e-06 22.3226 -2.38419e-05 1.00318e-05 -1.10991e-05 0 
18.5447 23.4905 -271.274 -0.500551 1.53881 -6.4221 7.98655 -7.66899 1.92437 11.4426 2.08326 -1.79237 8.9407e-06 -49.3246 2.38419e-05 -5.44135 -1.72484 -0.164278 -7.45058e-07 -37.761 0 3.25296 -11.0291 2.50174 -7.6257 -7.70445 1.55642 -7.71293 1.77252 -1.11829 -2.98023e-06 -48.824 7.15256e-05 4.92956 1.81899 -0.156859 2.98023e-06 -39.5743 2.38419e-05 -5.73969 -6.09734 -3.97561 5.96046e-06 6.32074 -6.32071 1.15444 -3.40331 -0.509035 -5.96046e-06 34.616 0 -29.2629 1.18461e-05 -6.46157 20.6233 1.19209e-05 2.38419e-05 -47.5753 18.1363 1.2877 28.3388 -3.57628e-05 0 -1.92696e-06 -6.83019e-06 -22.6647 25.1525 2.98023e-05 0 -6.51055 0.00917736 0.0623111 0.0062 0.0497 0.0339 0 0 0 0 0.0215 0 0 0 0 0 0.022 0 0 0 0 0 0.017 0 0 0 0 -0.0068 0.0873 0.0207 0 0 0 0 0.0267 0 0 0 0 0 0.0213 0 0 0 0 0 0.018 0 0 0 0 -0.0067 0.0922 0.0055 0 0 0 0 0.0266 0 0 0 0 0 0.0228 0 0 0 0 0 0.015 0 0 0 0 -0.0067 0.0925 -0.0113 0 0 0 0 0.0247 0 0 0 0 0 0.0221 0 0 0 0 0 0.018 0 0 0 0 -0.0066 0.0935 -0.0272 0 0 0 0 0.0163 0 0 0 0 0 0.0171 0 0 0 0 0 0.018 0 0 0 0 -5.96046e-06 34.616 0 27.3607 -3.4151e-06 6.82489 -19.5302 5.96046e-06 -2.38419e-05 47.5938 -5.73566 -2.01068 -29.9462 -5.96046e-06 2.38419e-05 4.09895 1.25232 16.9605 -27.679 -5.96046e-06 7.15256e-05 8.9282 -0.0426943 -0.295241 -0.0062 0.0497 0.0339 0 0 0 0 0.0215 0 0 0 0 0 0.022 0 0 0 0 0 0.017 0 0 0 0 0.0068 0.0873 0.0207 0 0 0 0 0.0267 0 0 0 0 0 0.0213 0 0 0 0 0 0.018 0 0 0 0 0.0067 0.0922 0.0055 0 0 0 0 0.0266 0 0 0 0 0 0.0228 0 0 0 0 0 0.015 0 0 0 0 0.0067 0.0925 -0.0113 0 0 0 0 0.0247 0 0 0 0 0 0.0221 0 0 0 0 0 0.018 0 0 0 0 0.0066 0.0935 -0.0272 0 0 0 0 0.0163 0 0 0 0 0 0.0171 0 0 0 0 0 0.018 0 0 0 0 -5.96046e-06 34.616 0 -2.29525 10.5515 0.420523 -5.96046e-06 22.2557 -4.76837e-05 1.00318e-05 -1.28066e-05 8.53774e-07 
